# xmcd
#
# Track frame offsets: 
#        150
#        8905
#        34022
#        53530
#        79160
#        106197
#        129660
#        138307
#        177350
#        204777
#        225597
#        262385
#        283055
#        307022
#
# Disc length: 4435 seconds
#
# Revision: 5
# Processed by: cddbd v1.5.1PL0 Copyright (c) Steve Scherf et al.
# Submitted via: ExactAudioCopy v0.95a5
#
DISCID=be11510e
DTITLE=Shadow Gallery - Tyranny
DYEAR=1998
DGENRE=Progressive Rock
TTITLE0=Stiletto In The Sand
TTITLE1=War For Sale
TTITLE2=Out Of Nowhere
TTITLE3=Mystery
TTITLE4=Hope For Us?
TTITLE5=Victims
TTITLE6=Broken
TTITLE7=I Believe
TTITLE8=Roads Of Thunder
TTITLE9=Spoken Words
TTITLE10=New World Order
TTITLE11=Chased
TTITLE12=Ghost Of A Chance
TTITLE13=Christmas Day
EXTD=YEAR: 1998
EXTT0=
EXTT1=
EXTT2=
EXTT3=
EXTT4=
EXTT5=
EXTT6=
EXTT7=
EXTT8=
EXTT9=
EXTT10=
EXTT11=
EXTT12=
EXTT13=
PLAYORDER=
